<svg width="168" height="168" viewBox="0 0 168 168" fill="none" xmlns="http://www.w3.org/2000/svg">
<path d="M126 154H28V28H98L126 56V154Z" fill="#42A5F5"/>
<path d="M140 140H42V14H112L140 42V140Z" fill="#90CAF9"/>
<path d="M134.75 45.5H108.5V19.25L134.75 45.5Z" fill="#E1F5FE"/>
<path d="M85.75 99.05C85.75 82.6 98.35 83.65 98.35 73.8501C98.35 71.4001 97.65 66.5001 91.35 66.5001C84.35 66.5001 84 72.1 84 73.5H74.55C74.55 71.05 75.6 58.8 91.35 58.8C107.45 58.8 107.8 71.4001 107.8 73.8501C107.8 86.1 94.5 87.85 94.5 99.4H85.75V99.05ZM85.05 111.3C85.05 110.6 85.05 106.05 90.3 106.05C95.2 106.05 95.55 110.6 95.55 111.3C95.55 112.7 94.85 116.2 90.3 116.2C85.75 116.2 85.05 112.7 85.05 111.3Z" fill="#1976D2"/>
</svg>
