<svg width="168" height="168" viewBox="0 0 168 168" fill="none" xmlns="http://www.w3.org/2000/svg">
<path d="M126 154H28V28H98L126 56V154Z" fill="#42A5F5"/>
<path d="M140 140H42V14H112L140 42V140Z" fill="#90CAF9"/>
<path d="M134.75 45.5H108.5V19.25L134.75 45.5Z" fill="#E1F5FE"/>
<path d="M81.9 104.65C81.9 103.95 81.9 103.25 82.25 102.55C82.6 101.85 82.95 101.5 83.3 100.8C83.65 100.1 84.35 100.1 85.05 99.75C85.75 99.4 86.45 99.4 87.15 99.4C87.85 99.4 88.9 99.4 89.6 99.75C90.3 100.1 91 100.45 91.35 100.8C91.7 101.15 92.05 101.85 92.4 102.55C92.75 103.25 92.75 103.95 92.75 104.65C92.75 105.35 92.75 106.05 92.4 106.75C92.05 107.45 91.7 107.8 91.35 108.5C91 109.2 90.3 109.2 89.6 109.55C88.9 109.9 88.2 109.9 87.15 109.9C86.1 109.9 85.4 109.9 85.05 109.55C84.7 109.2 83.65 108.85 83.3 108.5C82.95 108.15 82.6 107.45 82.25 106.75C81.9 106.05 81.9 105.35 81.9 104.65ZM91.35 93.8H83.3L81.9 59.5H92.4L91.35 93.8Z" fill="#1976D2"/>
</svg>
