<svg width="168" height="168" viewBox="0 0 168 168" fill="none" xmlns="http://www.w3.org/2000/svg">
<path d="M24.5 24.5V143.5H143.5V24.5H24.5ZM136.5 52.5H115.5V31.5H136.5V52.5ZM87.5 52.5V31.5H108.5V52.5H87.5ZM108.5 59.5V80.5H87.5V59.5H108.5ZM80.5 52.5H59.5V31.5H80.5V52.5ZM80.5 59.5V80.5H59.5V59.5H80.5ZM52.5 80.5H31.5V59.5H52.5V80.5ZM52.5 87.5V108.5H31.5V87.5H52.5ZM59.5 87.5H80.5V108.5H59.5V87.5ZM80.5 115.5V136.5H59.5V115.5H80.5ZM87.5 115.5H108.5V136.5H87.5V115.5ZM87.5 108.5V87.5H108.5V108.5H87.5ZM115.5 87.5H136.5V108.5H115.5V87.5ZM115.5 80.5V59.5H136.5V80.5H115.5ZM52.5 31.5V52.5H31.5V31.5H52.5ZM31.5 115.5H52.5V136.5H31.5V115.5ZM115.5 136.5V115.5H136.5V136.5H115.5Z" fill="#90CAF9"/>
</svg>
